<?xml version="1.0" encoding="utf-8"?>
<svg viewBox="0 0 500 500" xmlns="http://www.w3.org/2000/svg">
  <defs>
    <clipPath clipPathUnits="userSpaceOnUse" id="clipPath33">
      <path d="M 0,1000 H 1000 V 0 H 0 Z" id="path31"/>
    </clipPath>
  </defs>
  <g id="g25" transform="matrix(0.489625, 0, 0, -0.489625, 5.187556, 494.812439)" style="">
    <g id="g27" style="fill:#ffffff">
      <g id="g29" clip-path="url(#clipPath33)" style="fill:#ffffff">
        <g id="g35" transform="matrix(1.471841, 0, 0, 1.471841, 792.534851, 267.957489)" style="fill: rgb(255, 255, 255);">
          <path d="m 0,0 c 14.28,17.947 26.022,37.686 35.021,58.958 13.234,31.297 19.951,64.525 19.951,98.771 0,34.238 -6.717,67.463 -19.951,98.769 -12.779,30.216 -31.074,57.344 -54.369,80.64 -23.281,23.293 -50.414,41.578 -80.631,54.367 -31.304,13.235 -64.542,19.953 -98.774,19.953 -34.237,0 -67.476,-6.718 -98.771,-19.953 -30.223,-12.789 -57.356,-31.074 -80.641,-54.367 -23.288,-23.296 -41.586,-50.424 -54.364,-80.64 -13.234,-31.306 -19.952,-64.531 -19.952,-98.769 0,-34.246 6.718,-67.474 19.952,-98.771 12.778,-30.222 31.076,-57.357 54.364,-80.637 23.285,-23.297 50.418,-41.584 80.641,-54.361 31.295,-13.238 64.534,-19.953 98.771,-19.953 34.232,0 67.47,6.715 98.774,19.953 16.28,6.881 31.66,15.374 46.026,25.381 0.036,0.027 0.085,0.059 0.124,0.09 0.271,0.19 0.555,0.368 0.821,0.56 l -0.027,0.031 c 4.324,3.318 7.129,8.517 7.129,14.385 0,10.011 -8.114,18.125 -18.127,18.125 -4.138,0 -7.941,-1.409 -10.995,-3.742 l -0.031,0.032 c -35.117,-24.317 -77.737,-38.572 -123.694,-38.572 -60.811,0 -115.79,24.956 -155.26,65.189 -8.621,8.782 -16.498,18.293 -23.53,28.435 -24.398,35.154 -38.692,77.829 -38.692,123.855 0,120.102 97.366,217.478 217.482,217.478 120.109,0 217.482,-97.376 217.482,-217.478 0,-47.798 -15.424,-91.987 -41.557,-127.881 l -153.095,200.206 -22.822,29.837 -22.817,-29.837 -133.433,-174.477 c -2.26,-3.015 -3.598,-6.777 -3.598,-10.839 0,-10.005 8.121,-18.122 18.124,-18.122 5.939,0 11.219,2.861 14.53,7.285 l 127.194,166.318 221.07,-289.084 c 3.302,-4.416 8.582,-7.284 14.526,-7.284 10.01,0 18.121,8.109 18.121,18.118 0,4.062 -1.338,7.823 -3.599,10.842 z" style="fill-opacity: 1; fill-rule: nonzero; stroke: none; fill: rgb(0, 0, 0);" id="path37"/>
        </g>
        <g id="g39" transform="translate(431.5918,285.5029)" style="fill:#ffffff"/>
        <g id="g43" transform="translate(992.2002,310.4336)" style="fill:#ffffff"/>
        <g id="g47" transform="translate(187.731,131.6367)" style="fill:#ffffff"/>
        <g id="g51" transform="translate(698.8223,222.2725)" style="fill:#ffffff"/>
        <g id="g55" transform="translate(53.5645,190.8437)" style="fill:#ffffff"/>
        <g id="g59" transform="translate(649.3994,106.9961)" style="fill:#ffffff"/>
      </g>
    </g>
  </g>
</svg>